<?xml version="1.0" standalone="no"?>
<!DOCTYPE svg PUBLIC "-//W3C//DTD SVG 20010904//EN"
 "http://www.w3.org/TR/2001/REC-SVG-20010904/DTD/svg10.dtd">
<svg version="1.0" xmlns="http://www.w3.org/2000/svg"
 width="500.000000pt" height="500.000000pt" viewBox="0 0 500.000000 500.000000"
 preserveAspectRatio="xMidYMid meet">

<g transform="translate(0.000000,500.000000) scale(0.100000,-0.100000)"
fill="#000000" stroke="none">
<path d="M1795 4056 c-37 -17 -78 -61 -94 -101 -8 -20 -11 -87 -9 -200 l3
-170 230 -3 c207 -2 231 -1 242 15 10 12 13 78 13 245 l0 228 -177 0 c-126 -1
-187 -5 -208 -14z m285 -231 l0 -155 -145 0 -145 0 0 148 c0 82 3 152 7 155 3
4 69 7 145 7 l138 0 0 -155z"/>
<path d="M1874 3887 c-3 -8 -4 -41 -2 -73 l3 -59 62 -3 c58 -3 63 -1 68 21 4
13 5 46 3 73 l-3 49 -63 3 c-46 2 -64 -1 -68 -11z"/>
<path d="M2260 3806 l0 -265 -29 -20 c-28 -20 -42 -21 -285 -21 l-256 0 0 -46
0 -45 98 2 97 2 3 -42 3 -41 -69 0 c-38 0 -84 -3 -101 -6 -27 -6 -31 -10 -31
-40 l0 -34 104 0 c58 0 107 -3 109 -7 3 -5 8 -23 12 -40 l7 -33 -70 0 c-38 0
-90 -3 -116 -6 -45 -7 -46 -7 -46 -44 l0 -37 99 5 c147 7 426 -7 448 -23 16
-12 18 -38 23 -262 l5 -248 83 -3 82 -3 0 101 c0 99 0 100 -24 100 -57 0 -56
-3 -56 194 0 99 -5 188 -10 196 -7 12 -39 16 -142 20 l-133 5 -3 43 -3 42 110
0 111 0 0 40 0 40 -60 0 -60 0 0 45 0 45 65 0 c60 0 67 2 96 33 l31 32 -3 235
-4 235 43 3 42 3 0 -200 c0 -109 3 -206 6 -215 5 -12 20 -16 58 -16 83 0 152
-26 206 -76 l47 -44 82 0 81 0 0 -40 0 -40 -79 0 c-44 0 -83 -4 -86 -10 -3 -5
-3 -26 1 -46 l7 -36 81 3 81 4 3 -42 3 -43 -100 0 c-90 0 -102 -2 -128 -24
-15 -13 -42 -30 -59 -39 -17 -9 -34 -23 -37 -32 -8 -19 -46 -19 -71 0 -11 8
-34 15 -52 15 -39 0 -44 -14 -44 -127 0 -103 4 -113 45 -113 l32 0 6 -82 c4
-46 7 -111 7 -145 l0 -63 40 0 40 0 0 186 0 185 43 -3 42 -3 3 -182 2 -183 41
0 40 0 -7 233 -7 233 30 34 31 34 255 0 255 0 7 113 c4 62 4 156 0 208 l-7 95
-245 0 c-211 0 -249 2 -273 17 -51 30 -53 41 -48 307 l5 246 -79 0 -78 0 -2
-70 c-1 -38 -2 -78 -2 -87 -1 -14 8 -19 42 -21 l43 -3 -3 -42 c-3 -41 -4 -42
-40 -45 l-38 -3 0 -90 0 -89 -45 0 -45 0 0 225 0 225 -130 0 -130 0 0 -264z
m-200 -431 c0 -50 -13 -62 -55 -51 -21 5 -25 12 -25 46 0 38 1 39 38 43 20 2
38 4 40 5 1 1 2 -18 2 -43z m1015 -40 c3 -41 4 -79 0 -85 -3 -5 -23 -10 -44
-10 -37 0 -39 2 -45 38 -3 20 -6 58 -6 85 l0 47 44 0 44 0 7 -75z m173 -47
l-3 -123 -42 -1 c-53 -1 -56 6 -52 124 4 123 4 122 55 122 l45 0 -3 -122z"/>
<path d="M2856 3973 c-3 -54 -2 -163 2 -243 l7 -145 231 -3 231 -2 5 156 c7
216 -3 254 -76 308 -25 19 -44 21 -211 24 l-183 3 -6 -98z m368 -3 c3 -3 6
-71 7 -150 l1 -145 -139 -3 -140 -3 -6 82 c-3 45 -3 115 0 156 l6 74 133 -3
c73 -2 135 -5 138 -8z"/>
<path d="M3027 3894 c-4 -4 -7 -36 -7 -70 0 -77 14 -89 87 -77 l48 8 0 70 0
70 -60 3 c-34 2 -64 0 -68 -4z"/>
<path d="M2565 3410 c-4 -6 -3 -10 2 -9 21 4 34 -2 27 -13 -4 -6 -3 -8 4 -4 6
3 13 2 16 -3 3 -5 -1 -12 -10 -15 -9 -3 -14 -12 -11 -19 3 -8 0 -14 -7 -14 -7
0 -12 12 -11 28 1 16 -2 26 -7 23 -5 -4 -7 -12 -4 -19 3 -10 -5 -10 -37 -3
-23 5 -49 7 -58 5 -12 -3 -15 1 -12 13 3 10 0 21 -6 24 -6 4 -11 0 -11 -11 0
-10 -10 -24 -22 -32 -22 -13 -23 -13 -5 6 23 27 22 40 -3 18 -22 -20 -27 -45
-9 -45 7 0 8 -7 4 -17 -13 -34 -11 -82 5 -89 8 -4 19 -6 23 -5 5 1 6 -3 2 -9
-5 -8 -12 -7 -23 1 -10 7 -6 1 8 -12 30 -30 66 -41 89 -29 9 5 24 11 35 14 12
4 17 13 13 25 -4 15 0 18 18 17 12 -2 22 2 22 8 1 6 2 34 4 63 1 29 5 50 10
48 4 -3 9 1 12 9 9 22 -46 65 -58 46z m-110 -200 c-3 -5 -1 -10 6 -10 7 0 10
-3 6 -6 -9 -9 -28 6 -22 17 4 5 8 9 11 9 3 0 2 -4 -1 -10z"/>
<path d="M1763 3003 l-73 -4 0 -156 c0 -177 12 -221 75 -268 32 -25 33 -25
221 -23 l189 3 3 221 2 221 -37 6 c-40 6 -258 6 -380 0z m317 -221 l0 -143
-142 3 -143 3 -3 140 -3 140 146 0 145 0 0 -143z"/>
<path d="M1882 2852 c-9 -6 -12 -27 -10 -68 l3 -58 38 -9 c57 -14 85 -3 92 36
2 17 1 48 -3 67 -7 34 -10 35 -57 38 -28 1 -56 -2 -63 -6z"/>
<path d="M2864 2992 c-14 -14 -16 -42 -12 -216 2 -111 7 -207 11 -213 6 -10
54 -13 184 -13 175 0 176 0 210 26 68 52 73 70 73 255 l0 167 -162 5 c-265 8
-286 7 -304 -11z m366 -212 l0 -141 -142 3 -143 3 -3 138 -3 137 146 0 145 0
0 -140z"/>
<path d="M3020 2792 c0 -32 5 -63 12 -70 14 -14 67 -16 102 -2 24 9 26 14 26
70 l0 60 -70 0 -70 0 0 -58z"/>
<path d="M1365 2398 c-71 -41 -83 -104 -31 -164 30 -34 39 -39 78 -39 65 0 98
25 98 75 0 38 -2 40 -29 40 -16 0 -36 3 -45 6 -12 5 -16 0 -16 -20 0 -20 5
-26 21 -26 31 0 18 -24 -15 -28 -63 -8 -93 80 -40 115 24 15 29 16 54 1 18
-10 32 -12 44 -6 24 13 20 26 -14 43 -34 18 -77 19 -105 3z"/>
<path d="M1630 2305 l0 -105 80 0 c73 0 80 2 80 20 0 18 -7 20 -55 20 -48 0
-55 2 -55 20 0 15 7 20 29 20 39 0 61 9 61 26 0 10 -13 14 -45 14 -38 0 -45 3
-45 20 0 18 7 20 55 20 52 0 55 1 55 25 0 25 -1 25 -80 25 l-80 0 0 -105z"/>
<path d="M1900 2305 l0 -105 26 0 c26 0 26 1 19 55 -4 33 -3 55 3 55 5 0 29
-25 53 -55 31 -38 51 -54 68 -55 l24 0 -7 102 c-3 56 -8 104 -11 106 -2 2 -11
2 -20 -1 -11 -5 -15 -21 -15 -63 l0 -58 -34 40 c-19 21 -43 49 -54 62 -10 12
-27 22 -36 22 -14 0 -16 -15 -16 -105z"/>
<path d="M2200 2303 l0 -103 80 0 c73 0 80 2 80 20 0 18 -7 20 -55 20 -48 0
-55 2 -55 20 0 17 7 20 40 20 33 0 40 3 40 20 0 17 -7 20 -40 20 -33 0 -40 3
-40 20 0 17 7 20 50 20 46 0 50 2 50 24 0 24 -2 25 -75 23 l-75 -2 0 -102z"/>
<path d="M2470 2303 l0 -103 25 0 c21 0 25 5 25 30 0 23 5 30 19 30 11 0 28
-13 38 -30 13 -22 25 -30 45 -30 15 0 28 5 28 10 0 6 -3 10 -8 10 -4 0 -13 9
-20 21 -12 18 -11 24 7 43 26 28 27 57 2 87 -16 20 -31 25 -90 29 l-71 5 0
-102z m118 25 c3 -27 1 -28 -37 -28 -39 0 -41 1 -41 31 0 29 2 30 38 27 32 -3
37 -7 40 -30z"/>
<path d="M2798 2373 c-9 -21 -28 -66 -42 -99 -14 -34 -26 -64 -26 -68 0 -13
43 -5 55 10 17 24 83 26 96 2 9 -17 60 -27 58 -10 0 4 -19 50 -43 102 -50 111
-72 126 -98 63z m62 -90 c0 -7 -11 -13 -25 -13 -28 0 -30 6 -14 47 l11 28 13
-25 c8 -14 14 -31 15 -37z"/>
<path d="M3000 2386 c0 -19 6 -25 28 -28 27 -3 27 -4 30 -80 3 -73 4 -78 25
-78 21 0 22 4 22 77 l0 78 33 3 c26 3 32 7 32 28 0 24 -2 24 -85 24 -83 0 -85
0 -85 -24z"/>
<path d="M3285 2379 c-30 -26 -35 -38 -35 -73 0 -50 21 -83 66 -102 71 -30
144 20 144 98 0 34 -6 46 -36 74 -47 45 -90 46 -139 3z m95 -24 c24 -13 30
-22 30 -50 0 -56 -59 -85 -95 -45 -24 27 -22 70 5 92 27 22 24 22 60 3z"/>
<path d="M3565 2400 c-1 -3 0 -49 2 -102 5 -87 8 -98 24 -98 12 0 19 7 19 19
0 10 6 24 14 30 15 13 36 -2 56 -38 6 -13 17 -17 35 -14 24 5 25 6 8 34 -16
26 -16 29 0 47 21 23 21 70 1 97 -11 15 -31 21 -85 25 -39 3 -72 3 -74 0z
m119 -53 c29 -21 10 -47 -35 -47 -37 0 -39 2 -39 30 0 26 4 30 28 30 16 0 36
-6 46 -13z"/>
<path d="M1365 2081 c-79 -35 -125 -115 -125 -214 0 -51 5 -70 31 -113 45 -73
96 -104 176 -104 l63 0 0 -38 c0 -33 8 -45 69 -106 l70 -69 35 29 c19 16 35
32 35 36 1 4 -20 37 -45 73 -43 61 -45 67 -29 79 17 12 17 14 -4 28 -20 14
-21 48 -1 48 17 0 35 70 35 140 0 57 -5 82 -19 105 -33 51 -79 96 -115 111
-46 19 -128 17 -176 -5z m170 -114 c37 -37 51 -87 41 -142 -9 -45 -22 -52 -50
-26 -28 26 -66 28 -66 3 0 -10 5 -23 11 -29 35 -35 -45 -41 -84 -5 -90 81 -44
232 72 232 35 0 49 -6 76 -33z"/>
<path d="M1747 2093 c-4 -3 -7 -105 -7 -225 l0 -218 56 0 56 0 -7 75 -7 75 34
0 c40 0 50 -10 99 -92 l34 -58 63 0 c48 0 61 3 55 13 -4 6 -30 45 -56 85 -27
40 -47 74 -45 75 62 33 83 66 82 133 0 47 -4 58 -33 88 -18 18 -49 38 -70 45
-41 12 -243 16 -254 4z m236 -111 c23 -20 22 -43 -3 -70 -17 -18 -32 -22 -80
-22 l-60 0 0 53 c0 30 3 56 6 60 11 11 119 -6 137 -21z"/>
<path d="M2262 2079 c-26 -13 -55 -40 -75 -68 -30 -43 -32 -52 -32 -131 0 -82
2 -88 35 -135 85 -117 250 -134 345 -35 l30 32 -30 24 c-36 29 -43 29 -70 4
-32 -30 -103 -36 -142 -11 -70 44 -88 153 -35 212 39 44 99 50 167 15 l49 -25
28 32 27 32 -32 28 c-45 40 -68 47 -150 47 -53 0 -83 -6 -115 -21z"/>
<path d="M3250 2036 l0 -64 -37 19 c-44 23 -79 18 -135 -17 -80 -51 -102 -162
-49 -246 40 -62 65 -78 127 -78 42 0 59 5 83 26 l31 26 0 -26 c0 -24 3 -26 45
-26 l45 0 0 225 0 225 -55 0 -55 0 0 -64z m-29 -133 c72 -43 39 -163 -44 -163
-71 0 -105 105 -51 155 32 29 55 31 95 8z"/>
<path d="M2684 1991 c-49 -22 -80 -60 -95 -114 -14 -53 -4 -101 31 -153 36
-51 82 -74 150 -74 148 0 239 150 163 268 -53 81 -162 113 -249 73z m153 -97
c22 -22 25 -32 20 -67 -4 -28 -14 -49 -32 -64 -81 -70 -191 46 -124 131 29 37
99 37 136 0z"/>
<path d="M3514 1993 c-55 -32 -61 -38 -83 -73 -29 -48 -29 -132 0 -180 62
-101 164 -126 272 -67 20 11 37 24 37 27 0 4 -12 17 -26 29 -22 19 -30 21 -51
12 -43 -20 -107 -14 -131 12 -12 13 -22 26 -22 30 0 3 53 8 118 9 l117 3 0 55
c0 45 -6 62 -28 92 -50 65 -139 87 -203 51z m126 -95 c36 -39 27 -48 -54 -48
-41 0 -77 4 -80 9 -3 5 4 20 15 35 27 34 88 37 119 4z"/>
<path d="M2489 1429 c-110 -17 -153 -102 -77 -151 59 -38 181 -27 218 19 39
49 14 115 -48 129 -15 3 -31 7 -37 8 -5 1 -31 -1 -56 -5z"/>
</g>
</svg>
